<?xml version="1.0" encoding="UTF-8" ?>
<!DOCTYPE svg PUBLIC "-//W3C//DTD SVG 1.1//EN" "http://www.w3.org/Graphics/SVG/1.1/DTD/svg11.dtd">
<svg width="1104pt" height="1121pt" viewBox="0 0 1104 1121" version="1.1" xmlns="http://www.w3.org/2000/svg">
<g id="#84be1fff">
<path fill="#84be1f" opacity="1.00" d=" M 441.61 105.51 C 528.83 69.36 623.39 49.06 718.02 52.30 C 766.55 54.00 815.02 62.08 860.95 78.05 C 898.62 91.12 934.55 109.58 966.45 133.58 C 1012.07 167.73 1049.19 213.32 1072.54 265.36 C 1092.97 310.26 1102.82 359.53 1104.00 408.72 L 1104.00 425.38 C 1102.73 474.77 1093.34 523.81 1077.36 570.52 C 1051.88 645.41 1010.58 714.37 959.82 774.83 C 911.43 832.33 854.28 882.30 791.58 923.65 C 723.03 968.75 647.43 1003.41 568.02 1024.30 C 518.42 1037.35 467.32 1044.94 416.01 1045.90 C 352.91 1046.98 289.17 1037.87 230.10 1015.13 C 172.69 993.24 120.11 957.68 80.56 910.44 C 53.91 878.87 33.18 842.31 19.84 803.20 C 7.05 766.40 0.93 727.50 0.00 688.61 L 0.00 672.61 C 1.29 621.89 11.14 571.54 27.89 523.70 C 45.98 471.61 71.83 422.38 103.05 376.99 C 144.12 317.32 194.55 264.29 251.00 218.97 C 308.83 172.52 373.09 133.99 441.61 105.51 M 467.00 167.96 C 442.99 174.28 419.34 182.62 397.51 194.56 C 355.10 218.09 322.14 256.23 299.92 298.93 C 284.58 329.55 275.77 363.08 271.16 396.92 C 267.81 421.44 266.55 446.23 266.75 470.97 C 266.80 635.91 266.65 800.84 266.82 965.78 C 337.13 965.72 407.44 965.78 477.75 965.75 C 477.76 784.82 477.75 603.90 477.75 422.98 C 478.09 409.47 479.78 395.87 484.27 383.07 C 488.42 370.99 495.74 359.96 505.71 351.90 C 519.21 340.40 537.50 335.62 555.01 336.98 C 573.26 337.80 591.30 344.04 605.83 355.17 C 621.16 366.91 633.62 382.81 639.87 401.19 C 645.27 417.29 646.72 435.05 642.40 451.59 C 638.46 466.48 628.93 479.37 617.07 488.99 C 604.68 499.25 589.81 506.12 574.43 510.53 C 553.36 516.59 531.33 518.27 509.51 518.52 C 509.48 579.67 509.52 640.82 509.49 701.98 C 523.38 701.96 537.20 703.71 551.04 704.69 C 562.36 705.87 573.74 704.84 585.08 704.41 C 620.82 702.24 657.20 697.02 689.85 681.56 C 720.56 666.20 749.00 646.41 774.44 623.36 C 797.32 603.44 812.95 576.61 824.55 548.90 C 839.29 513.84 846.88 475.98 848.27 438.04 C 850.10 397.82 844.23 357.08 829.63 319.48 C 816.88 287.25 796.73 258.16 772.16 233.82 C 755.87 218.02 737.44 204.51 717.80 193.18 C 683.77 172.63 644.21 163.36 605.01 159.27 C 558.97 154.75 511.93 156.25 467.00 167.96 Z" />
</g>
<g id="#ffffffff">
<path fill="#ffffff" opacity="1.00" d=" M 467.00 167.96 C 511.93 156.25 558.97 154.75 605.01 159.27 C 644.21 163.36 683.77 172.63 717.80 193.18 C 737.44 204.51 755.87 218.02 772.16 233.82 C 796.73 258.16 816.88 287.25 829.63 319.48 C 844.23 357.08 850.10 397.82 848.27 438.04 C 846.88 475.98 839.29 513.84 824.55 548.90 C 812.95 576.61 797.32 603.44 774.44 623.36 C 749.00 646.41 720.56 666.20 689.85 681.56 C 657.20 697.02 620.82 702.24 585.08 704.41 C 573.74 704.84 562.36 705.87 551.04 704.69 C 537.20 703.71 523.38 701.96 509.49 701.98 C 509.52 640.82 509.48 579.67 509.51 518.52 C 531.33 518.27 553.36 516.59 574.43 510.53 C 589.81 506.12 604.68 499.25 617.07 488.99 C 628.93 479.37 638.46 466.48 642.40 451.59 C 646.72 435.05 645.27 417.29 639.87 401.19 C 633.62 382.81 621.16 366.91 605.83 355.17 C 591.30 344.04 573.26 337.80 555.01 336.98 C 537.50 335.62 519.21 340.40 505.71 351.90 C 495.74 359.96 488.42 370.99 484.27 383.07 C 479.78 395.87 478.09 409.47 477.75 422.98 C 477.75 603.90 477.76 784.82 477.75 965.75 C 407.44 965.78 337.13 965.72 266.82 965.78 C 266.65 800.84 266.80 635.91 266.75 470.97 C 266.55 446.23 267.81 421.44 271.16 396.92 C 275.77 363.08 284.58 329.55 299.92 298.93 C 322.14 256.23 355.10 218.09 397.51 194.56 C 419.34 182.62 442.99 174.28 467.00 167.96 Z" />
</g>
</svg>
